# xmcd
#
# Track frame offsets:
#	150
#	13907
#	26667
#	37180
#	51035
#	64802
#	74830
#	88137
#
# Disc length: 2682 seconds
#
# Revision: 1
# Processed by: cddbd v1.5.2PL0 Copyright (c) Steve Scherf et al.
# Submitted via: audiograbber 1.83.01
#
DISCID=760a7808
DTITLE=Various Artist - Bluegrass Gospel
DYEAR=1991
DGENRE=Bluegrass
TTITLE0=God Loves His Children
TTITLE1=Where Could I Go
TTITLE2=River of Jordan
TTITLE3=The church of the Wildwood
TTITLE4=From the Rising of the Sun
TTITLE5=I'll be No Stranger There
TTITLE6=The Last Train to Heaven
TTITLE7=Various
EXTD=
EXTT0=
EXTT1=
EXTT2=
EXTT3=
EXTT4=
EXTT5=
EXTT6=
EXTT7=
PLAYORDER=
